<svg width="44" height="49" viewBox="0 0 44 49" fill="none" xmlns="http://www.w3.org/2000/svg">
<path d="M6.05793 12.6328C3.26224 15.6484 1.40695 19.4139 0.719407 23.4682C0.0318635 27.5224 0.541931 31.6891 2.18711 35.4577C3.83228 39.2264 6.5411 42.4333 9.98163 44.6854C13.4222 46.9375 17.4449 48.1371 21.557 48.1371C25.6691 48.1371 29.6919 46.9375 33.1325 44.6854C36.573 42.4333 39.2818 39.2264 40.927 35.4577C42.5722 31.6891 43.0822 27.5224 42.3947 23.4682C41.7071 19.4139 39.8519 15.6484 37.0562 12.6328" stroke="#8B3A18" stroke-width="0.845406"/>
<path d="M8.03088 14.6094C5.63578 17.2324 4.05498 20.4952 3.48099 24.0005C2.907 27.5059 3.36456 31.1025 4.79797 34.3524C6.23139 37.6024 8.5788 40.3654 11.5544 42.3052C14.53 44.2449 18.0054 45.2777 21.5574 45.2777C25.1094 45.2777 28.5848 44.2449 31.5604 42.3052C34.536 40.3654 36.8834 37.6024 38.3168 34.3524C39.7502 31.1025 40.2078 27.5059 39.6338 24.0005C39.0598 20.4952 37.479 17.2324 35.0839 14.6094" stroke="#8B3A18" stroke-width="0.422703"/>
<path d="M3.24023 15.6397L10.2853 8.59469L14.5123 12.2581L21.5574 0.140625L28.6024 12.2581L32.8295 8.59469L39.8745 15.6397H21.5574H3.24023Z" fill="#1E4D6B" stroke="#1E4D6B" stroke-width="0.281802" stroke-linejoin="round"/>
<path d="M21.5571 0.140625L25.7841 8.59469L23.8115 7.18568L21.5571 10.0037L19.3027 7.18568L17.3301 8.59469L21.5571 0.140625Z" fill="white"/>
<path d="M10.2857 8.59375L12.5401 11.4118L11.4129 10.5664L10.2857 12.2572L9.15846 10.5664L8.03125 11.4118L10.2857 8.59375Z" fill="white"/>
<path d="M32.8286 8.59375L35.0831 11.4118L33.9558 10.5664L32.8286 12.2572L31.7014 10.5664L30.5742 11.4118L32.8286 8.59375Z" fill="white"/>
<path d="M20.9922 15.3454H22.1194L21.5558 14.5L20.9922 15.3454Z" fill="#8B3A18"/>
<path d="M21.5564 15.3438L31.4195 20.9798H11.6934L21.5564 15.3438Z" fill="#8B3A18"/>
<path d="M8.875 25.2086H34.2372L30.0102 22.3906H13.102L8.875 25.2086Z" fill="#8B3A18"/>
<path d="M18.1743 25.2109H15.9199V26.6199H18.1743V25.2109Z" fill="#8B3A18"/>
<path d="M27.1919 25.2109H24.9375V26.6199H27.1919V25.2109Z" fill="#8B3A18"/>
<path d="M11.337 32.3594H11.0552C10.8996 32.3594 10.7734 32.4855 10.7734 32.6412V36.3046C10.7734 36.4602 10.8996 36.5864 11.0552 36.5864H11.337C11.4927 36.5864 11.6188 36.4602 11.6188 36.3046V32.6412C11.6188 32.4855 11.4927 32.3594 11.337 32.3594Z" fill="#8B3A18"/>
<path d="M11.1967 33.2041C12.1305 33.2041 12.8875 32.1948 12.8875 30.9497C12.8875 29.7046 12.1305 28.6953 11.1967 28.6953C10.2629 28.6953 9.50586 29.7046 9.50586 30.9497C9.50586 32.1948 10.2629 33.2041 11.1967 33.2041Z" fill="#8B3A18"/>
<path d="M14.5781 34.3281H20.2142C20.2142 36.5825 14.5781 36.5825 14.5781 34.3281Z" fill="#8B3A18"/>
<path d="M23.7355 32.3594H23.4537C23.298 32.3594 23.1719 32.4855 23.1719 32.6412V36.3046C23.1719 36.4602 23.298 36.5864 23.4537 36.5864H23.7355C23.8911 36.5864 24.0173 36.4602 24.0173 36.3046V32.6412C24.0173 32.4855 23.8911 32.3594 23.7355 32.3594Z" fill="#8B3A18"/>
<path d="M21.9043 28.9766L22.1861 32.9218H25.0041L25.2859 28.9766H21.9043Z" fill="#8B3A18"/>
<path d="M23.3131 28.9766H23.0312V31.7946H23.3131V28.9766Z" fill="white"/>
<path d="M24.1588 28.9766H23.877V31.7946H24.1588V28.9766Z" fill="white"/>
<path d="M28.1055 30.9453H33.7415L33.1779 35.4541H28.6691L28.1055 30.9453Z" stroke="#8B3A18" stroke-width="0.563604"/>
<path d="M28.3867 32.3543H33.4592H28.3867ZM28.6685 34.0451H33.1774H28.6685ZM30.9229 30.9453V35.4541V30.9453ZM29.5139 30.9453L29.7957 35.4541L29.5139 30.9453ZM32.3319 30.9453L32.0501 35.4541L32.3319 30.9453Z" fill="black"/>
<path d="M28.3867 32.3543H33.4592M28.6685 34.0451H33.1774M30.9229 30.9453V35.4541M29.5139 30.9453L29.7957 35.4541M32.3319 30.9453L32.0501 35.4541" stroke="#8B3A18" stroke-width="0.422703"/>
<path d="M28.6699 30.9492L30.9243 28.9766L33.1788 30.9492" stroke="#8B3A18" stroke-width="0.563604"/>
<path d="M12.6683 38.9395H13.4884V39.8683H14.3846V38.9395H15.2084V41.5938H14.3846V40.5201H13.4884V41.5938H12.6683V38.9395ZM17.3138 38.9395H18.1321V40.5219C18.1321 40.6788 18.1074 40.8273 18.0579 40.9673C18.0096 41.1061 17.9329 41.228 17.8279 41.333C17.7241 41.4368 17.6149 41.5099 17.5002 41.5521C17.3409 41.6113 17.1496 41.6408 16.9263 41.6408C16.7972 41.6408 16.6559 41.6318 16.5026 41.6137C16.3506 41.5956 16.2232 41.56 16.1206 41.5068C16.018 41.4525 15.9239 41.3759 15.8382 41.2769C15.7537 41.1779 15.6958 41.0759 15.6644 40.9709C15.6137 40.802 15.5883 40.6523 15.5883 40.5219V38.9395H16.4067V40.5599C16.4067 40.7048 16.4465 40.8182 16.5262 40.9003C16.6071 40.9812 16.7187 41.0216 16.8611 41.0216C17.0023 41.0216 17.1128 40.9818 17.1925 40.9021C17.2733 40.8213 17.3138 40.7072 17.3138 40.5599V38.9395ZM18.5102 38.9395H20.0455C20.3014 38.9395 20.4975 39.0029 20.6339 39.1296C20.7715 39.2564 20.8403 39.4133 20.8403 39.6004C20.8403 39.7573 20.7915 39.8919 20.6937 40.0041C20.6285 40.079 20.5332 40.1381 20.4076 40.1816C20.5983 40.2274 20.7383 40.3065 20.8277 40.4187C20.9182 40.5298 20.9635 40.6698 20.9635 40.8388C20.9635 40.9764 20.9315 41.1001 20.8675 41.2099C20.8035 41.3198 20.716 41.4067 20.605 41.4706C20.5362 41.5105 20.4324 41.5394 20.2936 41.5575C20.1089 41.5817 19.9864 41.5938 19.926 41.5938H18.5102V38.9395ZM19.3376 39.9806H19.6943C19.8222 39.9806 19.9109 39.9589 19.9604 39.9154C20.0111 39.8707 20.0365 39.8068 20.0365 39.7235C20.0365 39.6462 20.0111 39.5859 19.9604 39.5424C19.9109 39.499 19.824 39.4773 19.6997 39.4773H19.3376V39.9806ZM19.3376 41.0234H19.7558C19.8971 41.0234 19.9966 40.9987 20.0546 40.9492C20.1125 40.8985 20.1415 40.8309 20.1415 40.7464C20.1415 40.668 20.1125 40.6052 20.0546 40.5581C19.9978 40.5099 19.8977 40.4857 19.754 40.4857H19.3376V41.0234ZM21.2329 38.9395H21.9988L22.9982 40.4079V38.9395H23.7713V41.5938H22.9982L22.0042 40.1363V41.5938H21.2329V38.9395ZM24.1476 38.9395H26.3455V39.5062H24.9695V39.9281H26.2459V40.4694H24.9695V40.9927H26.3853V41.5938H24.1476V38.9395ZM26.6584 38.9395H28.0218C28.3187 38.9395 28.5408 39.0102 28.688 39.1514C28.8365 39.2926 28.9107 39.4936 28.9107 39.7543C28.9107 40.0222 28.8298 40.2316 28.6681 40.3825C28.5076 40.5334 28.262 40.6088 27.9312 40.6088H27.4822V41.5938H26.6584V38.9395ZM27.4822 40.0711H27.6832C27.8413 40.0711 27.9524 40.044 28.0163 39.9896C28.0803 39.9341 28.1123 39.8635 28.1123 39.7778C28.1123 39.6945 28.0845 39.6239 28.029 39.566C27.9735 39.508 27.8691 39.4791 27.7158 39.4791H27.4822V40.0711ZM30.4928 41.1556H29.5586L29.43 41.5938H28.5918L29.5894 38.9395H30.4838L31.4814 41.5938H30.6232L30.4928 41.1556ZM30.3208 40.5817L30.0275 39.6275L29.736 40.5817H30.3208Z" fill="url(#paint0_linear_305_2598)"/>
<defs>
<linearGradient id="paint0_linear_305_2598" x1="11.9336" y1="40.0938" x2="31.9336" y2="40.0938" gradientUnits="userSpaceOnUse">
<stop stop-color="#1E4D6B"/>
<stop offset="0.5" stop-color="#1E2939"/>
<stop offset="1" stop-color="#8B3A18"/>
</linearGradient>
</defs>
</svg>
