<svg width="176" height="49" viewBox="0 0 176 49" fill="none" xmlns="http://www.w3.org/2000/svg">
<path d="M65.7729 25.125V7.67045H69.4632V14.8722H76.9547V7.67045H80.6365V25.125H76.9547V17.9148H69.4632V25.125H65.7729ZM93.8604 7.67045H97.5507V19.0057C97.5507 20.2784 97.2468 21.392 96.6388 22.3466C96.0365 23.3011 95.1928 24.0455 94.1076 24.5795C93.0223 25.108 91.7581 25.3722 90.315 25.3722C88.8661 25.3722 87.599 25.108 86.5138 24.5795C85.4286 24.0455 84.5848 23.3011 83.9826 22.3466C83.3803 21.392 83.0792 20.2784 83.0792 19.0057V7.67045H86.7695V18.6903C86.7695 19.3551 86.9144 19.946 87.2042 20.4631C87.4996 20.9801 87.9144 21.3864 88.4485 21.6818C88.9826 21.9773 89.6047 22.125 90.315 22.125C91.0309 22.125 91.653 21.9773 92.1814 21.6818C92.7155 21.3864 93.1275 20.9801 93.4172 20.4631C93.7127 19.946 93.8604 19.3551 93.8604 18.6903V7.67045ZM99.987 25.125V7.67045H106.976C108.26 7.67045 109.331 7.8608 110.189 8.24148C111.047 8.62216 111.692 9.15057 112.123 9.8267C112.555 10.4972 112.771 11.2699 112.771 12.1449C112.771 12.8267 112.635 13.4261 112.362 13.9432C112.089 14.4545 111.714 14.875 111.237 15.2045C110.765 15.5284 110.226 15.7585 109.618 15.8949V16.0653C110.282 16.0937 110.905 16.2812 111.484 16.6278C112.069 16.9744 112.544 17.4602 112.907 18.0852C113.271 18.7045 113.453 19.4432 113.453 20.3011C113.453 21.2273 113.223 22.054 112.763 22.7812C112.308 23.5028 111.635 24.0739 110.743 24.4943C109.851 24.9148 108.751 25.125 107.444 25.125H99.987ZM103.677 22.108H106.686C107.714 22.108 108.464 21.9119 108.936 21.5199C109.407 21.1222 109.643 20.5937 109.643 19.9347C109.643 19.4517 109.527 19.0256 109.294 18.6562C109.061 18.2869 108.728 17.9972 108.297 17.7869C107.87 17.5767 107.362 17.4716 106.771 17.4716H103.677V22.108ZM103.677 14.9744H106.413C106.919 14.9744 107.368 14.8864 107.76 14.7102C108.157 14.5284 108.47 14.2727 108.697 13.9432C108.93 13.6136 109.047 13.2188 109.047 12.7585C109.047 12.1278 108.822 11.6193 108.373 11.233C107.93 10.8466 107.299 10.6534 106.481 10.6534H103.677V14.9744ZM129.854 7.67045V25.125H126.666L119.072 14.1392H118.944V25.125H115.254V7.67045H118.493L126.027 18.6477H126.18V7.67045H129.854ZM132.303 25.125V7.67045H144.064V10.7131H135.993V14.8722H143.459V17.9148H135.993V22.0824H144.098V25.125H132.303ZM146.398 25.125V7.67045H153.284C154.608 7.67045 155.736 7.9233 156.668 8.42898C157.6 8.92898 158.31 9.625 158.798 10.517C159.293 11.4034 159.54 12.4261 159.54 13.5852C159.54 14.7443 159.29 15.767 158.79 16.6534C158.29 17.5398 157.566 18.2301 156.617 18.7244C155.673 19.2187 154.531 19.4659 153.191 19.4659H148.801V16.5085H152.594C153.304 16.5085 153.889 16.3864 154.35 16.142C154.816 15.892 155.162 15.5483 155.389 15.1108C155.622 14.6676 155.739 14.1591 155.739 13.5852C155.739 13.0057 155.622 12.5 155.389 12.0682C155.162 11.6307 154.816 11.2926 154.35 11.054C153.884 10.8097 153.293 10.6875 152.577 10.6875H150.088V25.125H146.398ZM162.33 25.125H158.375L164.401 7.67045H169.157L175.174 25.125H171.219L166.847 11.6591H166.711L162.33 25.125ZM162.083 18.2642H171.424V21.1449H162.083V18.2642Z" fill="white"/>
<path d="M65.0229 39.125V32.1432H69.3525V33.05H66.0763V35.1773H69.0422V36.0807H66.0763V39.125H65.0229ZM76.9527 35.6341C76.9527 36.3795 76.8163 37.0205 76.5436 37.5568C76.2709 38.0909 75.897 38.5023 75.422 38.7909C74.9493 39.0773 74.4118 39.2205 73.8095 39.2205C73.205 39.2205 72.6652 39.0773 72.1902 38.7909C71.7175 38.5023 71.3447 38.0898 71.072 37.5534C70.7993 37.017 70.6629 36.3773 70.6629 35.6341C70.6629 34.8886 70.7993 34.2489 71.072 33.7148C71.3447 33.1784 71.7175 32.767 72.1902 32.4807C72.6652 32.192 73.205 32.0477 73.8095 32.0477C74.4118 32.0477 74.9493 32.192 75.422 32.4807C75.897 32.767 76.2709 33.1784 76.5436 33.7148C76.8163 34.2489 76.9527 34.8886 76.9527 35.6341ZM75.9095 35.6341C75.9095 35.0659 75.8175 34.5875 75.6334 34.1989C75.4515 33.808 75.2015 33.5125 74.8834 33.3125C74.5675 33.1102 74.2095 33.0091 73.8095 33.0091C73.4072 33.0091 73.0481 33.1102 72.7322 33.3125C72.4163 33.5125 72.1663 33.808 71.9822 34.1989C71.8004 34.5875 71.7095 35.0659 71.7095 35.6341C71.7095 36.2023 71.8004 36.6818 71.9822 37.0727C72.1663 37.4614 72.4163 37.7568 72.7322 37.9591C73.0481 38.1591 73.4072 38.2591 73.8095 38.2591C74.2095 38.2591 74.5675 38.1591 74.8834 37.9591C75.2015 37.7568 75.4515 37.4614 75.6334 37.0727C75.8175 36.6818 75.9095 36.2023 75.9095 35.6341ZM84.5708 35.6341C84.5708 36.3795 84.4344 37.0205 84.1617 37.5568C83.889 38.0909 83.5151 38.5023 83.0401 38.7909C82.5674 39.0773 82.0299 39.2205 81.4276 39.2205C80.8231 39.2205 80.2833 39.0773 79.8083 38.7909C79.3356 38.5023 78.9628 38.0898 78.6901 37.5534C78.4174 37.017 78.281 36.3773 78.281 35.6341C78.281 34.8886 78.4174 34.2489 78.6901 33.7148C78.9628 33.1784 79.3356 32.767 79.8083 32.4807C80.2833 32.192 80.8231 32.0477 81.4276 32.0477C82.0299 32.0477 82.5674 32.192 83.0401 32.4807C83.5151 32.767 83.889 33.1784 84.1617 33.7148C84.4344 34.2489 84.5708 34.8886 84.5708 35.6341ZM83.5276 35.6341C83.5276 35.0659 83.4356 34.5875 83.2515 34.1989C83.0697 33.808 82.8197 33.5125 82.5015 33.3125C82.1856 33.1102 81.8276 33.0091 81.4276 33.0091C81.0253 33.0091 80.6663 33.1102 80.3503 33.3125C80.0344 33.5125 79.7844 33.808 79.6003 34.1989C79.4185 34.5875 79.3276 35.0659 79.3276 35.6341C79.3276 36.2023 79.4185 36.6818 79.6003 37.0727C79.7844 37.4614 80.0344 37.7568 80.3503 37.9591C80.6663 38.1591 81.0253 38.2591 81.4276 38.2591C81.8276 38.2591 82.1856 38.1591 82.5015 37.9591C82.8197 37.7568 83.0697 37.4614 83.2515 37.0727C83.4356 36.6818 83.5276 36.2023 83.5276 35.6341ZM88.3844 39.125H86.1242V32.1432H88.456C89.1401 32.1432 89.7276 32.283 90.2185 32.5625C90.7094 32.8398 91.0855 33.2386 91.3469 33.7591C91.6105 34.2773 91.7423 34.8989 91.7423 35.6239C91.7423 36.3511 91.6094 36.9761 91.3435 37.4989C91.0798 38.0216 90.698 38.4239 90.198 38.7057C89.698 38.9852 89.0935 39.125 88.3844 39.125ZM87.1776 38.2045H88.3264C88.8582 38.2045 89.3003 38.1045 89.6526 37.9045C90.0048 37.7023 90.2685 37.4102 90.4435 37.0284C90.6185 36.6443 90.706 36.1761 90.706 35.6239C90.706 35.0761 90.6185 34.6114 90.4435 34.2295C90.2707 33.8477 90.0128 33.558 89.6696 33.3602C89.3264 33.1625 88.9003 33.0636 88.3912 33.0636H87.1776V38.2045ZM98.0229 39.2239C97.5547 39.2239 97.1513 39.1386 96.8127 38.9682C96.4763 38.7977 96.2172 38.5659 96.0354 38.2727C95.8536 37.9773 95.7627 37.6432 95.7627 37.2705C95.7627 36.9864 95.8218 36.7341 95.94 36.5136C96.0581 36.2909 96.2229 36.0852 96.4343 35.8966C96.6456 35.708 96.89 35.5182 97.1672 35.3273L98.2922 34.533C98.4831 34.408 98.632 34.2761 98.7388 34.1375C98.8456 33.9966 98.899 33.8227 98.899 33.6159C98.899 33.4523 98.8286 33.2955 98.6877 33.1455C98.5468 32.9955 98.3581 32.9205 98.1218 32.9205C97.9581 32.9205 97.8138 32.9602 97.6888 33.0398C97.5661 33.1193 97.4695 33.2216 97.399 33.3466C97.3309 33.4693 97.2968 33.5989 97.2968 33.7352C97.2968 33.8943 97.34 34.0545 97.4263 34.2159C97.515 34.3773 97.6286 34.5443 97.7672 34.717C97.9059 34.8875 98.0513 35.0648 98.2036 35.2489L101.446 39.125H100.293L97.6104 35.9716C97.3854 35.7057 97.1763 35.4557 96.9831 35.2216C96.79 34.9852 96.6331 34.7466 96.5127 34.5057C96.3945 34.2625 96.3354 34 96.3354 33.7182C96.3354 33.3977 96.4081 33.1136 96.5536 32.8659C96.7013 32.6159 96.907 32.4205 97.1706 32.2795C97.4343 32.1386 97.7434 32.0682 98.0979 32.0682C98.457 32.0682 98.765 32.1386 99.0218 32.2795C99.2809 32.4182 99.4797 32.6034 99.6184 32.8352C99.7593 33.0648 99.8297 33.3159 99.8297 33.5886C99.8297 33.9205 99.7468 34.2136 99.5809 34.4682C99.4172 34.7205 99.1911 34.9523 98.9025 35.1636L97.5013 36.1966C97.2286 36.3966 97.0388 36.5943 96.932 36.7898C96.8275 36.983 96.7752 37.1341 96.7752 37.2432C96.7752 37.4432 96.8263 37.6284 96.9286 37.7989C97.0331 37.9693 97.1786 38.1057 97.365 38.208C97.5536 38.3102 97.774 38.3614 98.0263 38.3614C98.2854 38.3614 98.5377 38.3057 98.7831 38.1943C99.0309 38.0807 99.2547 37.9182 99.4547 37.7068C99.657 37.4955 99.8172 37.242 99.9354 36.9466C100.054 36.6511 100.113 36.3205 100.113 35.9545H101.033C101.033 36.4045 100.982 36.7852 100.88 37.0966C100.777 37.4057 100.654 37.658 100.508 37.8534C100.365 38.0466 100.23 38.1977 100.102 38.3068C100.062 38.3432 100.023 38.3795 99.9865 38.4159C99.9502 38.4523 99.9115 38.4886 99.8706 38.525C99.6343 38.7636 99.3479 38.9398 99.0115 39.0534C98.6775 39.167 98.3479 39.2239 98.0229 39.2239ZM105.347 32.1432H106.625L108.848 37.5705H108.93L111.152 32.1432H112.431V39.125H111.428V34.0727H111.364L109.305 39.1148H108.473L106.414 34.0693H106.349V39.125H105.347V32.1432ZM114.792 39.125H113.674L116.186 32.1432H117.403L119.916 39.125H118.798L116.824 33.4114H116.769L114.792 39.125ZM114.98 36.3909H118.607V37.2773H114.98V36.3909ZM121.164 39.125V32.1432H123.653C124.194 32.1432 124.643 32.2364 124.999 32.4227C125.358 32.6091 125.627 32.867 125.804 33.1966C125.981 33.5239 126.07 33.9023 126.07 34.3318C126.07 34.7591 125.98 35.1352 125.801 35.4602C125.623 35.783 125.355 36.0341 124.996 36.2136C124.639 36.3932 124.19 36.483 123.649 36.483H121.764V35.5761H123.554C123.895 35.5761 124.172 35.5273 124.386 35.4295C124.602 35.3318 124.76 35.1898 124.86 35.0034C124.96 34.817 125.01 34.5932 125.01 34.3318C125.01 34.0682 124.958 33.8398 124.856 33.6466C124.756 33.4534 124.598 33.3057 124.382 33.2034C124.169 33.0989 123.888 33.0466 123.54 33.0466H122.218V39.125H121.164ZM124.611 35.975L126.336 39.125H125.136L123.445 35.975H124.611ZM127.247 33.05V32.1432H132.651V33.05H130.472V39.125H129.422V33.05H127.247Z" fill="#62748E"/>
<path d="M6.05891 12.7349C3.26322 15.7504 1.40793 19.516 0.720384 23.5702C0.0328401 27.6244 0.542908 31.7911 2.18808 35.5598C3.83326 39.3284 6.54208 42.5353 9.98261 44.7875C13.4231 47.0396 17.4459 48.2392 21.558 48.2392C25.6701 48.2392 29.6929 47.0396 33.1334 44.7875C36.574 42.5353 39.2828 39.3284 40.928 35.5598C42.5731 31.7911 43.0832 27.6244 42.3957 23.5702C41.7081 19.516 39.8528 15.7504 37.0571 12.7349" stroke="#FB5603" stroke-width="0.845406"/>
<path d="M8.03186 14.7075C5.63675 17.3305 4.05596 20.5934 3.48197 24.0987C2.90797 27.604 3.36554 31.2006 4.79895 34.4506C6.23236 37.7005 8.57978 40.4636 11.5554 42.4033C14.531 44.3431 18.0063 45.3758 21.5584 45.3758C25.1104 45.3758 28.5858 44.3431 31.5613 42.4033C34.5369 40.4636 36.8844 37.7005 38.3178 34.4506C39.7512 31.2006 40.2087 27.604 39.6347 24.0987C39.0608 20.5934 37.48 17.3305 35.0849 14.7075" stroke="#FB5603" stroke-width="0.422703"/>
<path d="M3.24121 15.7384L10.2863 8.69332L14.5133 12.3567L21.5583 0.239258L28.6034 12.3567L32.8304 8.69332L39.8755 15.7384H21.5583H3.24121Z" fill="#1E4D6B" stroke="#1E4D6B" stroke-width="0.281802" stroke-linejoin="round"/>
<path d="M21.5581 0.239258L25.7851 8.69332L23.8125 7.28431L21.5581 10.1023L19.3037 7.28431L17.3311 8.69332L21.5581 0.239258Z" fill="white"/>
<path d="M10.2866 8.69336L12.5411 11.5114L11.4139 10.666L10.2866 12.3568L9.15944 10.666L8.03223 11.5114L10.2866 8.69336Z" fill="white"/>
<path d="M32.8306 8.69336L35.085 11.5114L33.9578 10.666L32.8306 12.3568L31.7034 10.666L30.5762 11.5114L32.8306 8.69336Z" fill="white"/>
<path d="M20.9941 15.4416H22.1213L21.5577 14.5962L20.9941 15.4416Z" fill="#FB5603"/>
<path d="M21.5584 15.4419L31.4215 21.0779H11.6953L21.5584 15.4419Z" fill="#FB5603"/>
<path d="M8.87695 25.3048H34.2391L30.0121 22.4868H13.104L8.87695 25.3048Z" fill="#FB5603"/>
<path d="M18.1763 25.3047H15.9219V26.7137H18.1763V25.3047Z" fill="#FB5603"/>
<path d="M27.1948 25.3047H24.9404V26.7137H27.1948V25.3047Z" fill="#FB5603"/>
<path d="M11.338 32.4609H11.0562C10.9006 32.4609 10.7744 32.5871 10.7744 32.7427V36.4062C10.7744 36.5618 10.9006 36.688 11.0562 36.688H11.338C11.4937 36.688 11.6198 36.5618 11.6198 36.4062V32.7427C11.6198 32.5871 11.4937 32.4609 11.338 32.4609Z" fill="#FB5603"/>
<path d="M11.1976 33.3067C12.1315 33.3067 12.8885 32.2973 12.8885 31.0523C12.8885 29.8072 12.1315 28.7979 11.1976 28.7979C10.2638 28.7979 9.50684 29.8072 9.50684 31.0523C9.50684 32.2973 10.2638 33.3067 11.1976 33.3067Z" fill="#FB5603"/>
<path d="M14.5791 34.4336H20.2151C20.2151 36.688 14.5791 36.688 14.5791 34.4336Z" fill="#FB5603"/>
<path d="M23.7374 32.4609H23.4556C23.3 32.4609 23.1738 32.5871 23.1738 32.7427V36.4062C23.1738 36.5618 23.3 36.688 23.4556 36.688H23.7374C23.8931 36.688 24.0192 36.5618 24.0192 36.4062V32.7427C24.0192 32.5871 23.8931 32.4609 23.7374 32.4609Z" fill="#FB5603"/>
<path d="M21.9062 29.0796L22.1881 33.0248H25.0061L25.2879 29.0796H21.9062Z" fill="#FB5603"/>
<path d="M23.315 29.0796H23.0332V31.8976H23.315V29.0796Z" fill="white"/>
<path d="M24.1607 29.0796H23.8789V31.8976H24.1607V29.0796Z" fill="white"/>
<path d="M28.1055 31.0522H33.7415L33.1779 35.5611H28.6691L28.1055 31.0522Z" stroke="#FB5603" stroke-width="0.563604"/>
<path d="M28.3877 32.4613H33.4601H28.3877ZM28.6695 34.1521H33.1783H28.6695ZM30.9239 31.0522V35.5611V31.0522ZM29.5149 31.0522L29.7967 35.5611L29.5149 31.0522ZM32.3329 31.0522L32.0511 35.5611L32.3329 31.0522Z" fill="black"/>
<path d="M28.3877 32.4613H33.4601M28.6695 34.1521H33.1783M30.9239 31.0522V35.5611M29.5149 31.0522L29.7967 35.5611M32.3329 31.0522L32.0511 35.5611" stroke="#FB5603" stroke-width="0.422703"/>
<path d="M28.6689 31.0522L30.9234 29.0796L33.1778 31.0522" stroke="#FB5603" stroke-width="0.563604"/>
<path d="M14.5338 39.5415H15.1973V40.293H15.9224V39.5415H16.5889V41.689H15.9224V40.8203H15.1973V41.689H14.5338V39.5415ZM18.2605 39.5415H18.9226V40.8218C18.9226 40.9487 18.9026 41.0688 18.8625 41.1821C18.8235 41.2944 18.7614 41.3931 18.6765 41.478C18.5925 41.562 18.5041 41.6211 18.4113 41.6553C18.2824 41.7031 18.1277 41.7271 17.947 41.7271C17.8425 41.7271 17.7282 41.7197 17.6042 41.7051C17.4812 41.6904 17.3781 41.6616 17.2951 41.6187C17.2121 41.5747 17.136 41.5127 17.0666 41.4326C16.9983 41.3525 16.9514 41.27 16.926 41.1851C16.885 41.0483 16.8645 40.9272 16.8645 40.8218V39.5415H17.5266V40.8525C17.5266 40.9697 17.5588 41.0615 17.6233 41.1279C17.6887 41.1934 17.779 41.2261 17.8943 41.2261C18.0085 41.2261 18.0979 41.1938 18.1623 41.1294C18.2278 41.064 18.2605 40.9717 18.2605 40.8525V39.5415ZM19.1966 39.5415H20.4388C20.6459 39.5415 20.8046 39.5928 20.9149 39.6953C21.0262 39.7979 21.0819 39.9248 21.0819 40.0762C21.0819 40.2031 21.0423 40.312 20.9632 40.4028C20.9105 40.4634 20.8334 40.5112 20.7318 40.5464C20.8861 40.5835 20.9994 40.6475 21.0716 40.7383C21.1449 40.8281 21.1815 40.9414 21.1815 41.0781C21.1815 41.1895 21.1556 41.2896 21.1039 41.3784C21.0521 41.4673 20.9813 41.5376 20.8915 41.5894C20.8358 41.6216 20.7518 41.645 20.6395 41.6597C20.4901 41.6792 20.391 41.689 20.3421 41.689H19.1966V39.5415ZM19.8661 40.3838H20.1546C20.2582 40.3838 20.3299 40.3662 20.37 40.3311C20.411 40.2949 20.4315 40.2432 20.4315 40.1758C20.4315 40.1133 20.411 40.0645 20.37 40.0293C20.3299 39.9941 20.2596 39.9766 20.159 39.9766H19.8661V40.3838ZM19.8661 41.2275H20.2045C20.3187 41.2275 20.3993 41.2075 20.4462 41.1675C20.493 41.1265 20.5165 41.0718 20.5165 41.0034C20.5165 40.9399 20.493 40.8892 20.4462 40.8511C20.4003 40.812 20.3192 40.7925 20.203 40.7925H19.8661V41.2275ZM21.3677 39.5415H21.9873L22.7959 40.7295V39.5415H23.4214V41.689H22.7959L21.9917 40.5098V41.689H21.3677V39.5415ZM23.694 39.5415H25.4723V40H24.359V40.3413H25.3917V40.7793H24.359V41.2026H25.5045V41.689H23.694V39.5415ZM25.6936 39.5415H26.7967C27.0369 39.5415 27.2166 39.5986 27.3357 39.7129C27.4558 39.8271 27.5159 39.9897 27.5159 40.2007C27.5159 40.4175 27.4505 40.5869 27.3196 40.709C27.1897 40.8311 26.991 40.8921 26.7234 40.8921H26.3601V41.689H25.6936V39.5415ZM26.3601 40.457H26.5227C26.6507 40.457 26.7405 40.4351 26.7923 40.3911C26.844 40.3462 26.8699 40.2891 26.8699 40.2197C26.8699 40.1523 26.8474 40.0952 26.8025 40.0483C26.7576 40.0015 26.6731 39.978 26.5491 39.978H26.3601V40.457ZM28.7641 41.3345H28.0082L27.9042 41.689H27.226L28.0331 39.5415H28.7568L29.5639 41.689H28.8695L28.7641 41.3345ZM28.6249 40.8701L28.3876 40.0981L28.1518 40.8701H28.6249Z" fill="white"/>
</svg>
