<svg width="176" height="49" viewBox="0 0 176 49" fill="none" xmlns="http://www.w3.org/2000/svg">
<path d="M65.5993 25.125V7.67045H69.2896V14.8722H76.7811V7.67045H80.4629V25.125H76.7811V17.9148H69.2896V25.125H65.5993ZM93.6868 7.67045H97.3771V19.0057C97.3771 20.2784 97.0731 21.392 96.4652 22.3466C95.8629 23.3011 95.0192 24.0455 93.9339 24.5795C92.8487 25.108 91.5845 25.3722 90.1413 25.3722C88.6925 25.3722 87.4254 25.108 86.3402 24.5795C85.255 24.0455 84.4112 23.3011 83.8089 22.3466C83.2067 21.392 82.9055 20.2784 82.9055 19.0057V7.67045H86.5959V18.6903C86.5959 19.3551 86.7407 19.946 87.0305 20.4631C87.326 20.9801 87.7407 21.3864 88.2748 21.6818C88.8089 21.9773 89.4311 22.125 90.1413 22.125C90.8572 22.125 91.4794 21.9773 92.0078 21.6818C92.5419 21.3864 92.9538 20.9801 93.2436 20.4631C93.539 19.946 93.6868 19.3551 93.6868 18.6903V7.67045ZM99.8133 25.125V7.67045H106.802C108.086 7.67045 109.157 7.8608 110.015 8.24148C110.873 8.62216 111.518 9.15057 111.95 9.8267C112.382 10.4972 112.597 11.2699 112.597 12.1449C112.597 12.8267 112.461 13.4261 112.188 13.9432C111.916 14.4545 111.541 14.875 111.063 15.2045C110.592 15.5284 110.052 15.7585 109.444 15.8949V16.0653C110.109 16.0937 110.731 16.2812 111.31 16.6278C111.896 16.9744 112.37 17.4602 112.734 18.0852C113.097 18.7045 113.279 19.4432 113.279 20.3011C113.279 21.2273 113.049 22.054 112.589 22.7812C112.134 23.5028 111.461 24.0739 110.569 24.4943C109.677 24.9148 108.578 25.125 107.271 25.125H99.8133ZM103.504 22.108H106.512C107.541 22.108 108.291 21.9119 108.762 21.5199C109.234 21.1222 109.47 20.5937 109.47 19.9347C109.47 19.4517 109.353 19.0256 109.12 18.6562C108.887 18.2869 108.555 17.9972 108.123 17.7869C107.697 17.5767 107.188 17.4716 106.597 17.4716H103.504V22.108ZM103.504 14.9744H106.239C106.745 14.9744 107.194 14.8864 107.586 14.7102C107.984 14.5284 108.296 14.2727 108.524 13.9432C108.757 13.6136 108.873 13.2188 108.873 12.7585C108.873 12.1278 108.649 11.6193 108.2 11.233C107.757 10.8466 107.126 10.6534 106.308 10.6534H103.504V14.9744ZM129.68 7.67045V25.125H126.492L118.899 14.1392H118.771V25.125H115.081V7.67045H118.319L125.853 18.6477H126.007V7.67045H129.68ZM132.129 25.125V7.67045H143.89V10.7131H135.819V14.8722H143.285V17.9148H135.819V22.0824H143.924V25.125H132.129ZM146.224 25.125V7.67045H153.111C154.435 7.67045 155.562 7.9233 156.494 8.42898C157.426 8.92898 158.136 9.625 158.625 10.517C159.119 11.4034 159.366 12.4261 159.366 13.5852C159.366 14.7443 159.116 15.767 158.616 16.6534C158.116 17.5398 157.392 18.2301 156.443 18.7244C155.5 19.2187 154.358 19.4659 153.017 19.4659H148.628V16.5085H152.42C153.131 16.5085 153.716 16.3864 154.176 16.142C154.642 15.892 154.988 15.5483 155.216 15.1108C155.449 14.6676 155.565 14.1591 155.565 13.5852C155.565 13.0057 155.449 12.5 155.216 12.0682C154.988 11.6307 154.642 11.2926 154.176 11.054C153.71 10.8097 153.119 10.6875 152.403 10.6875H149.915V25.125H146.224ZM162.156 25.125H158.202L164.227 7.67045H168.983L175 25.125H171.045L166.673 11.6591H166.537L162.156 25.125ZM161.909 18.2642H171.25V21.1449H161.909V18.2642Z" fill="#1E2939"/>
<path d="M86.7516 39.125V32.1432H91.0812V33.05H87.805V35.1773H90.7709V36.0807H87.805V39.125H86.7516ZM98.6814 35.6341C98.6814 36.3795 98.545 37.0205 98.2723 37.5568C97.9996 38.0909 97.6257 38.5023 97.1507 38.7909C96.678 39.0773 96.1405 39.2205 95.5382 39.2205C94.9337 39.2205 94.3939 39.0773 93.9189 38.7909C93.4462 38.5023 93.0734 38.0898 92.8007 37.5534C92.528 37.017 92.3916 36.3773 92.3916 35.6341C92.3916 34.8886 92.528 34.2489 92.8007 33.7148C93.0734 33.1784 93.4462 32.767 93.9189 32.4807C94.3939 32.192 94.9337 32.0477 95.5382 32.0477C96.1405 32.0477 96.678 32.192 97.1507 32.4807C97.6257 32.767 97.9996 33.1784 98.2723 33.7148C98.545 34.2489 98.6814 34.8886 98.6814 35.6341ZM97.6382 35.6341C97.6382 35.0659 97.5462 34.5875 97.3621 34.1989C97.1803 33.808 96.9303 33.5125 96.6121 33.3125C96.2962 33.1102 95.9382 33.0091 95.5382 33.0091C95.1359 33.0091 94.7768 33.1102 94.4609 33.3125C94.145 33.5125 93.895 33.808 93.7109 34.1989C93.5291 34.5875 93.4382 35.0659 93.4382 35.6341C93.4382 36.2023 93.5291 36.6818 93.7109 37.0727C93.895 37.4614 94.145 37.7568 94.4609 37.9591C94.7768 38.1591 95.1359 38.2591 95.5382 38.2591C95.9382 38.2591 96.2962 38.1591 96.6121 37.9591C96.9303 37.7568 97.1803 37.4614 97.3621 37.0727C97.5462 36.6818 97.6382 36.2023 97.6382 35.6341ZM106.3 35.6341C106.3 36.3795 106.163 37.0205 105.89 37.5568C105.618 38.0909 105.244 38.5023 104.769 38.7909C104.296 39.0773 103.759 39.2205 103.156 39.2205C102.552 39.2205 102.012 39.0773 101.537 38.7909C101.064 38.5023 100.692 38.0898 100.419 37.5534C100.146 37.017 100.01 36.3773 100.01 35.6341C100.01 34.8886 100.146 34.2489 100.419 33.7148C100.692 33.1784 101.064 32.767 101.537 32.4807C102.012 32.192 102.552 32.0477 103.156 32.0477C103.759 32.0477 104.296 32.192 104.769 32.4807C105.244 32.767 105.618 33.1784 105.89 33.7148C106.163 34.2489 106.3 34.8886 106.3 35.6341ZM105.256 35.6341C105.256 35.0659 105.164 34.5875 104.98 34.1989C104.798 33.808 104.548 33.5125 104.23 33.3125C103.914 33.1102 103.556 33.0091 103.156 33.0091C102.754 33.0091 102.395 33.1102 102.079 33.3125C101.763 33.5125 101.513 33.808 101.329 34.1989C101.147 34.5875 101.056 35.0659 101.056 35.6341C101.056 36.2023 101.147 36.6818 101.329 37.0727C101.513 37.4614 101.763 37.7568 102.079 37.9591C102.395 38.1591 102.754 38.2591 103.156 38.2591C103.556 38.2591 103.914 38.1591 104.23 37.9591C104.548 37.7568 104.798 37.4614 104.98 37.0727C105.164 36.6818 105.256 36.2023 105.256 35.6341ZM110.113 39.125H107.853V32.1432H110.185C110.869 32.1432 111.456 32.283 111.947 32.5625C112.438 32.8398 112.814 33.2386 113.076 33.7591C113.339 34.2773 113.471 34.8989 113.471 35.6239C113.471 36.3511 113.338 36.9761 113.072 37.4989C112.809 38.0216 112.427 38.4239 111.927 38.7057C111.427 38.9852 110.822 39.125 110.113 39.125ZM108.906 38.2045H110.055C110.587 38.2045 111.029 38.1045 111.381 37.9045C111.734 37.7023 111.997 37.4102 112.172 37.0284C112.347 36.6443 112.435 36.1761 112.435 35.6239C112.435 35.0761 112.347 34.6114 112.172 34.2295C111.999 33.8477 111.742 33.558 111.398 33.3602C111.055 33.1625 110.629 33.0636 110.12 33.0636H108.906V38.2045ZM119.752 39.2239C119.283 39.2239 118.88 39.1386 118.541 38.9682C118.205 38.7977 117.946 38.5659 117.764 38.2727C117.582 37.9773 117.491 37.6432 117.491 37.2705C117.491 36.9864 117.55 36.7341 117.669 36.5136C117.787 36.2909 117.952 36.0852 118.163 35.8966C118.374 35.708 118.619 35.5182 118.896 35.3273L120.021 34.533C120.212 34.408 120.361 34.2761 120.468 34.1375C120.574 33.9966 120.628 33.8227 120.628 33.6159C120.628 33.4523 120.557 33.2955 120.416 33.1455C120.275 32.9955 120.087 32.9205 119.85 32.9205C119.687 32.9205 119.543 32.9602 119.418 33.0398C119.295 33.1193 119.198 33.2216 119.128 33.3466C119.06 33.4693 119.025 33.5989 119.025 33.7352C119.025 33.8943 119.069 34.0545 119.155 34.2159C119.244 34.3773 119.357 34.5443 119.496 34.717C119.635 34.8875 119.78 35.0648 119.932 35.2489L123.174 39.125H122.022L119.339 35.9716C119.114 35.7057 118.905 35.4557 118.712 35.2216C118.519 34.9852 118.362 34.7466 118.241 34.5057C118.123 34.2625 118.064 34 118.064 33.7182C118.064 33.3977 118.137 33.1136 118.282 32.8659C118.43 32.6159 118.636 32.4205 118.899 32.2795C119.163 32.1386 119.472 32.0682 119.827 32.0682C120.186 32.0682 120.494 32.1386 120.75 32.2795C121.01 32.4182 121.208 32.6034 121.347 32.8352C121.488 33.0648 121.558 33.3159 121.558 33.5886C121.558 33.9205 121.475 34.2136 121.31 34.4682C121.146 34.7205 120.92 34.9523 120.631 35.1636L119.23 36.1966C118.957 36.3966 118.768 36.5943 118.661 36.7898C118.556 36.983 118.504 37.1341 118.504 37.2432C118.504 37.4432 118.555 37.6284 118.657 37.7989C118.762 37.9693 118.907 38.1057 119.094 38.208C119.282 38.3102 119.503 38.3614 119.755 38.3614C120.014 38.3614 120.266 38.3057 120.512 38.1943C120.76 38.0807 120.983 37.9182 121.183 37.7068C121.386 37.4955 121.546 37.242 121.664 36.9466C121.782 36.6511 121.841 36.3205 121.841 35.9545H122.762C122.762 36.4045 122.711 36.7852 122.608 37.0966C122.506 37.4057 122.382 37.658 122.237 37.8534C122.094 38.0466 121.958 38.1977 121.831 38.3068C121.79 38.3432 121.752 38.3795 121.715 38.4159C121.679 38.4523 121.64 38.4886 121.599 38.525C121.363 38.7636 121.077 38.9398 120.74 39.0534C120.406 39.167 120.077 39.2239 119.752 39.2239ZM127.075 32.1432H128.354L130.577 37.5705H130.658L132.881 32.1432H134.159V39.125H133.157V34.0727H133.092L131.033 39.1148H130.202L128.142 34.0693H128.078V39.125H127.075V32.1432ZM136.521 39.125H135.403L137.915 32.1432H139.132L141.645 39.125H140.526L138.553 33.4114H138.498L136.521 39.125ZM136.708 36.3909H140.336V37.2773H136.708V36.3909ZM142.893 39.125V32.1432H145.382C145.922 32.1432 146.371 32.2364 146.728 32.4227C147.087 32.6091 147.355 32.867 147.533 33.1966C147.71 33.5239 147.799 33.9023 147.799 34.3318C147.799 34.7591 147.709 35.1352 147.529 35.4602C147.352 35.783 147.084 36.0341 146.725 36.2136C146.368 36.3932 145.919 36.483 145.378 36.483H143.493V35.5761H145.283C145.624 35.5761 145.901 35.5273 146.114 35.4295C146.33 35.3318 146.488 35.1898 146.588 35.0034C146.688 34.817 146.738 34.5932 146.738 34.3318C146.738 34.0682 146.687 33.8398 146.585 33.6466C146.485 33.4534 146.327 33.3057 146.111 33.2034C145.897 33.0989 145.617 33.0466 145.269 33.0466H143.946V39.125H142.893ZM146.339 35.975L148.064 39.125H146.864L145.174 35.975H146.339ZM148.976 33.05V32.1432H154.379V33.05H152.201V39.125H151.151V33.05H148.976Z" fill="#62748E"/>
<path d="M10.6361 12.8291C7.84037 15.8446 5.98508 19.6102 5.29753 23.6644C4.60999 27.7187 5.12006 31.8854 6.76523 35.654C8.41041 39.4227 11.1192 42.6296 14.5598 44.8817C18.0003 47.1338 22.0231 48.3334 26.1352 48.3334C30.2473 48.3334 34.2701 47.1338 37.7106 44.8817C41.1511 42.6296 43.8599 39.4227 45.5051 35.654C47.1503 31.8854 47.6604 27.7187 46.9728 23.6644C46.2853 19.6102 44.43 15.8446 41.6343 12.8291" stroke="#8B3A18" stroke-width="0.845406"/>
<path d="M12.609 14.8018C10.2139 17.4248 8.63311 20.6876 8.05912 24.1929C7.48512 27.6983 7.94269 31.2949 9.3761 34.5448C10.8095 37.7947 13.1569 40.5578 16.1325 42.4976C19.1081 44.4373 22.5835 45.4701 26.1355 45.4701C29.6875 45.4701 33.1629 44.4373 36.1385 42.4976C39.1141 40.5578 41.4615 37.7947 42.8949 34.5448C44.3283 31.2949 44.7859 27.6983 44.2119 24.1929C43.6379 20.6876 42.0571 17.4248 39.662 14.8018" stroke="#8B3A18" stroke-width="0.422703"/>
<path d="M7.81836 15.8326L14.8634 8.78756L19.0904 12.451L26.1355 0.333496L33.1805 12.451L37.4076 8.78756L44.4526 15.8326H26.1355H7.81836Z" fill="#1E4D6B" stroke="#1E4D6B" stroke-width="0.281802" stroke-linejoin="round"/>
<path d="M26.1352 0.333496L30.3623 8.78756L28.3897 7.37855L26.1352 10.1966L23.8808 7.37855L21.9082 8.78756L26.1352 0.333496Z" fill="white"/>
<path d="M14.8638 8.7876L17.1182 11.6056L15.991 10.7602L14.8638 12.451L13.7366 10.7602L12.6094 11.6056L14.8638 8.7876Z" fill="white"/>
<path d="M37.4077 8.7876L39.6622 11.6056L38.5349 10.7602L37.4077 12.451L36.2805 10.7602L35.1533 11.6056L37.4077 8.7876Z" fill="white"/>
<path d="M25.5713 15.5358H26.6985L26.1349 14.6904L25.5713 15.5358Z" fill="#8B3A18"/>
<path d="M26.1355 15.5361L35.9986 21.1722H16.2725L26.1355 15.5361Z" fill="#8B3A18"/>
<path d="M13.4541 25.3991H38.8163L34.5893 22.5811H17.6811L13.4541 25.3991Z" fill="#8B3A18"/>
<path d="M22.7534 25.3989H20.499V26.8079H22.7534V25.3989Z" fill="#8B3A18"/>
<path d="M31.772 25.3989H29.5176V26.8079H31.772V25.3989Z" fill="#8B3A18"/>
<path d="M15.9152 32.5552H15.6334C15.4777 32.5552 15.3516 32.6813 15.3516 32.837V36.5004C15.3516 36.656 15.4777 36.7822 15.6334 36.7822H15.9152C16.0708 36.7822 16.197 36.656 16.197 36.5004V32.837C16.197 32.6813 16.0708 32.5552 15.9152 32.5552Z" fill="#8B3A18"/>
<path d="M15.7748 33.4009C16.7086 33.4009 17.4656 32.3916 17.4656 31.1465C17.4656 29.9014 16.7086 28.8921 15.7748 28.8921C14.841 28.8921 14.084 29.9014 14.084 31.1465C14.084 32.3916 14.841 33.4009 15.7748 33.4009Z" fill="#8B3A18"/>
<path d="M19.1562 34.5278H24.7923C24.7923 36.7822 19.1562 36.7822 19.1562 34.5278Z" fill="#8B3A18"/>
<path d="M28.3146 32.5552H28.0328C27.8771 32.5552 27.751 32.6813 27.751 32.837V36.5004C27.751 36.656 27.8771 36.7822 28.0328 36.7822H28.3146C28.4702 36.7822 28.5964 36.656 28.5964 36.5004V32.837C28.5964 32.6813 28.4702 32.5552 28.3146 32.5552Z" fill="#8B3A18"/>
<path d="M26.4834 29.1738L26.7652 33.1191H29.5832L29.865 29.1738H26.4834Z" fill="#8B3A18"/>
<path d="M27.8922 29.1738H27.6104V31.9918H27.8922V29.1738Z" fill="white"/>
<path d="M28.7379 29.1738H28.4561V31.9918H28.7379V29.1738Z" fill="white"/>
<path d="M32.6826 31.1465H38.3187L37.7551 35.6553H33.2462L32.6826 31.1465Z" stroke="#8B3A18" stroke-width="0.563604"/>
<path d="M32.9648 32.5555H38.0373H32.9648ZM33.2466 34.2463H37.7555H33.2466ZM35.5011 31.1465V35.6553V31.1465ZM34.0921 31.1465L34.3739 35.6553L34.0921 31.1465ZM36.9101 31.1465L36.6283 35.6553L36.9101 31.1465Z" fill="black"/>
<path d="M32.9648 32.5555H38.0373M33.2466 34.2463H37.7555M35.5011 31.1465V35.6553M34.0921 31.1465L34.3739 35.6553M36.9101 31.1465L36.6283 35.6553" stroke="#8B3A18" stroke-width="0.422703"/>
<path d="M33.2461 31.1464L35.5005 29.1738L37.7549 31.1464" stroke="#8B3A18" stroke-width="0.563604"/>
<path d="M17.2464 39.129H18.0666V40.0578H18.9628V39.129H19.7865V41.7832H18.9628V40.7096H18.0666V41.7832H17.2464V39.129ZM21.8919 39.129H22.7102V40.7114C22.7102 40.8683 22.6855 41.0168 22.636 41.1568C22.5877 41.2956 22.5111 41.4175 22.4061 41.5225C22.3023 41.6263 22.193 41.6993 22.0784 41.7416C21.919 41.8007 21.7277 41.8303 21.5044 41.8303C21.3753 41.8303 21.2341 41.8212 21.0808 41.8031C20.9287 41.785 20.8013 41.7494 20.6988 41.6963C20.5962 41.642 20.502 41.5653 20.4163 41.4664C20.3318 41.3674 20.2739 41.2654 20.2425 41.1604C20.1918 40.9914 20.1665 40.8417 20.1665 40.7114V39.129H20.9848V40.7494C20.9848 40.8942 21.0246 41.0077 21.1043 41.0898C21.1852 41.1706 21.2968 41.2111 21.4393 41.2111C21.5805 41.2111 21.6909 41.1713 21.7706 41.0916C21.8514 41.0107 21.8919 40.8967 21.8919 40.7494V39.129ZM23.0883 39.129H24.6236C24.8795 39.129 25.0757 39.1924 25.2121 39.3191C25.3497 39.4458 25.4185 39.6027 25.4185 39.7898C25.4185 39.9467 25.3696 40.0813 25.2718 40.1936C25.2066 40.2684 25.1113 40.3276 24.9857 40.371C25.1765 40.4169 25.3165 40.4959 25.4058 40.6082C25.4963 40.7192 25.5416 40.8592 25.5416 41.0282C25.5416 41.1658 25.5096 41.2895 25.4456 41.3994C25.3816 41.5092 25.2941 41.5961 25.1831 41.6601C25.1143 41.6999 25.0105 41.7289 24.8717 41.747C24.687 41.7711 24.5645 41.7832 24.5042 41.7832H23.0883V39.129ZM23.9157 40.17H24.2724C24.4004 40.17 24.4891 40.1483 24.5386 40.1049C24.5892 40.0602 24.6146 39.9962 24.6146 39.9129C24.6146 39.8357 24.5892 39.7753 24.5386 39.7319C24.4891 39.6884 24.4022 39.6667 24.2778 39.6667H23.9157V40.17ZM23.9157 41.2129H24.334C24.4752 41.2129 24.5748 41.1881 24.6327 41.1387C24.6906 41.088 24.7196 41.0204 24.7196 40.9359C24.7196 40.8574 24.6906 40.7947 24.6327 40.7476C24.576 40.6993 24.4758 40.6752 24.3322 40.6752H23.9157V41.2129ZM25.8111 39.129H26.5769L27.5763 40.5973V39.129H28.3494V41.7832H27.5763L26.5823 40.3257V41.7832H25.8111V39.129ZM28.7257 39.129H30.9236V39.6957H29.5477V40.1175H30.8241V40.6589H29.5477V41.1821H30.9635V41.7832H28.7257V39.129ZM31.2366 39.129H32.5999C32.8968 39.129 33.1189 39.1996 33.2661 39.3408C33.4146 39.482 33.4888 39.683 33.4888 39.9437C33.4888 40.2117 33.408 40.4211 33.2462 40.572C33.0857 40.7228 32.8401 40.7983 32.5094 40.7983H32.0603V41.7832H31.2366V39.129ZM32.0603 40.2606H32.2613C32.4194 40.2606 32.5305 40.2334 32.5944 40.1791C32.6584 40.1236 32.6904 40.053 32.6904 39.9673C32.6904 39.884 32.6626 39.8134 32.6071 39.7554C32.5516 39.6975 32.4472 39.6685 32.2939 39.6685H32.0603V40.2606ZM35.0709 41.3451H34.1367L34.0082 41.7832H33.1699L34.1675 39.129H35.0619L36.0595 41.7832H35.2013L35.0709 41.3451ZM34.8989 40.7711L34.6056 39.817L34.3141 40.7711H34.8989Z" fill="url(#paint0_linear_19_2868)"/>
<defs>
<linearGradient id="paint0_linear_19_2868" x1="16.5117" y1="40.2832" x2="36.5117" y2="40.2832" gradientUnits="userSpaceOnUse">
<stop stop-color="#1E4D6B"/>
<stop offset="0.5" stop-color="#1E2939"/>
<stop offset="1" stop-color="#8B3A18"/>
</linearGradient>
</defs>
</svg>
